<?xml version="1.0" encoding="utf-8"?>
<!-- Generator: Adobe Illustrator 19.0.0, SVG Export Plug-In . SVG Version: 6.00 Build 0)  -->
<svg version="1.1" id="Layer_1" xmlns="http://www.w3.org/2000/svg" xmlns:xlink="http://www.w3.org/1999/xlink" x="0px" y="0px"
	 viewBox="0 0 459 459" style="enable-background:new 0 0 459 459;" xml:space="preserve">
<style type="text/css">
	.st0{fill:#1391f4;}
	.st1{fill:#FFFFFF;}
</style>
<circle id="XMLID_1_" class="st0" cx="229.5" cy="229.5" r="229.5"/>
<g id="XMLID_3_">
	<path id="XMLID_4_" class="st1" d="M366.5,298.7c0,3.9-2.2,7.5-5.6,9.3c-3.4,1.8-6.7,4-10,6.4c-5,3.8-10.1,7.9-15.3,12.4
		c-5.1,4.5-10.5,9.2-16,14.2c-5.5,5-11.5,9.9-17.9,14.8c-6.4,4.9-13.4,9.5-20.9,13.9s-15.9,8.3-25,11.6c-9.1,3.3-19.2,6-30.2,8
		s-23.2,3-36.5,3c-14.8,0-28.1-3-39.9-8.9c-11.9-6-22-14-30.4-24.1c-8.4-10.1-14.9-21.9-19.4-35.3c-4.5-13.4-6.8-27.5-6.8-42.2
		c0-10.1,1.1-20.9,3.3-32.4c2.2-11.5,5.3-23.3,9.4-35.3s9.1-23.9,15-35.8c5.9-11.9,12.6-23.4,20.1-34.3
		c7.5-10.9,15.7-21.1,24.7-30.4c9-9.4,18.5-17.5,28.7-24.4c10.2-6.9,20.9-12.4,32.2-16.3c11.3-3.9,23-5.9,35.1-5.9
		c7.9,0,15.9,1.4,24,4.2c8.1,2.8,15.4,7.1,21.8,12.9c6.5,5.8,11.7,13.1,15.8,22s6.2,19.3,6.2,31.3c0,8.1-1.3,16.3-3.9,24.5
		c-2.6,8.3-6.1,16.2-10.6,23.8c-4.5,7.6-9.8,14.7-15.8,21.4c-6.1,6.7-12.6,12.4-19.6,17.3c-7,4.9-14.3,8.7-21.8,11.6
		c-7.5,2.8-15.1,4.3-22.6,4.3c-10,0-17.4-1.3-22.3-4c-4.9-2.7-7.4-6.5-7.4-11.6c0-0.9,0-1.9-0.1-3.1c-0.1-1.2-0.1-2.5-0.1-3.8
		c0-2,0.1-4,0.3-6.2c0.2-2.1,0.7-4.1,1.3-5.8c0.7-1.7,1.6-3.2,2.9-4.3c1.3-1.1,3-1.6,5.2-1.6c1.3,0,2.5,0.2,3.4,0.6
		c1,0.4,2.1,0.8,3.3,1.2c1.2,0.4,2.7,0.8,4.3,1.2c1.7,0.4,3.9,0.6,6.5,0.6c7,0,14.1-1.5,21.2-4.6c7.2-3.1,13.6-7.4,19.4-13
		s10.4-12.2,14.1-19.9c3.7-7.7,5.5-16.2,5.5-25.5c0-4.9-0.7-9.6-2-14s-3.4-8.3-6.4-11.6c-3-3.3-6.8-6-11.4-8c-4.7-2-10.3-3-17-3
		c-7.9,0-15.6,1.7-23.1,5.2c-7.5,3.4-14.7,8.1-21.6,14s-13.4,12.9-19.6,21c-6.2,8.1-11.9,16.8-17.1,26c-5.3,9.2-10,18.9-14.2,28.9
		c-4.2,10-7.8,20-10.7,29.9c-3,10-5.2,19.6-6.8,29c-1.6,9.4-2.4,18-2.4,25.8c0,11.3,1.4,21.1,4.2,29.4s6.8,15.3,11.9,20.9
		c5.1,5.6,11.4,9.7,18.9,12.5c7.4,2.7,15.8,4.1,25.1,4.1c11.6,0,22.4-1.4,32.4-4.3c10-2.9,19.5-6.7,28.6-11.4
		c9.1-4.7,17.9-10,26.3-15.9c8.5-5.9,17-11.8,25.4-17.8c8.5-6,17.1-11.6,25.9-17.1c4.2-2.6,8.4-4.9,12.8-7.1
		c7-3.5,15.2,1.7,15.2,9.5V298.7z"/>
</g>
</svg>
