<?xml version="1.0" encoding="iso-8859-1"?>
<!-- Generator: Adobe Illustrator 19.0.0, SVG Export Plug-In . SVG Version: 6.00 Build 0)  -->
<svg version="1.1" id="Layer_1" xmlns="http://www.w3.org/2000/svg" xmlns:xlink="http://www.w3.org/1999/xlink" x="0px" y="0px"
	 viewBox="0 0 347.458 69.531" style="enable-background:new 0 0 347.458 69.531;" xml:space="preserve">
<path id="XMLID_4_" style="fill:#FFA000;" d="M16.01,61.819l-9.217-9.217c-9.057-9.057-9.057-23.742,0-32.8l9.217-9.217
	c9.057-9.057,23.742-9.057,32.8,0l9.217,9.217c9.057,9.057,9.057,23.742,0,32.8l-9.217,9.217
	C39.752,70.876,25.068,70.876,16.01,61.819z"/>
<path id="XMLID_5_" style="fill:#D81B60;" d="M40.91,61.819l-9.217-9.217c-9.057-9.057-9.057-23.742,0-32.8l9.217-9.217
	c9.057-9.057,23.742-9.057,32.8,0l9.217,9.217c9.057,9.057,9.057,23.742,0,32.8l-9.217,9.217
	C64.652,70.876,49.967,70.876,40.91,61.819z"/>
<path id="XMLID_1_" style="fill:#283593;" d="M65.81,61.819l-9.217-9.217c-9.057-9.057-9.057-23.742,0-32.8l9.217-9.217
	c9.057-9.057,23.742-9.057,32.8,0l9.217,9.217c9.057,9.057,9.057,23.742,0,32.8l-9.217,9.217
	C89.552,70.876,74.867,70.876,65.81,61.819z"/>
<g id="XMLID_8_">
	<path id="XMLID_3_" style="fill:#EEEEEE;" d="M174.801,52.083c-1.073,0.46,0.445,1.07-0.565,1.828
		c-1.008,0.757-2.029,1.585-3.06,2.484c-1.033,0.901-2.102,1.85-3.21,2.849c-1.108,0.998-2.304,1.987-3.59,2.962
		c-1.284,0.977-2.682,1.91-4.196,2.798c-1.516,0.889-3.19,1.668-5.021,2.338c-1.831,0.669-3.851,1.201-6.057,1.596
		c-2.207,0.395-4.649,0.593-7.326,0.593c-2.962,0-5.634-0.598-8.016-1.794c-2.382-1.197-4.416-2.81-6.107-4.84
		c-1.69-2.03-2.99-4.39-3.901-7.078c-0.911-2.688-1.366-5.514-1.366-8.478c0-2.019,0.219-4.186,0.658-6.501
		c0.439-2.316,1.07-4.675,1.893-7.079c0.823-2.403,1.827-4.801,3.012-7.193c1.185-2.392,2.53-4.686,4.034-6.88
		c1.501-2.195,3.155-4.231,4.954-6.107c1.799-1.876,3.72-3.512,5.762-4.905c2.039-1.394,4.191-2.486,6.453-3.276
		c2.259-0.791,4.609-1.185,7.046-1.185c1.579,0,3.18,0.28,4.806,0.839c1.624,0.56,3.082,1.421,4.378,2.585
		c1.294,1.163,2.354,2.633,3.178,4.412c0.823,1.778,1.233,3.874,1.233,6.288c0,1.624-0.258,3.264-0.773,4.921
		c-0.515,1.658-1.223,3.249-2.124,4.774c-0.901,1.526-1.959,2.958-3.178,4.297c-1.218,1.339-2.53,2.497-3.933,3.473
		c-1.406,0.976-2.865,1.75-4.378,2.321c-1.514,0.571-3.03,0.856-4.544,0.856c-1.997,0-3.49-0.269-4.479-0.807
		c-0.986-0.537-1.481-1.311-1.481-2.321c0-0.176-0.005-0.384-0.015-0.625c-0.012-0.241-0.018-0.494-0.018-0.757
		c0-0.395,0.023-0.807,0.065-1.235c0.045-0.428,0.133-0.818,0.265-1.168c0.13-0.351,0.323-0.637,0.575-0.856
		c0.253-0.219,0.598-0.329,1.036-0.329c0.265,0,0.495,0.039,0.693,0.115c0.198,0.077,0.415,0.16,0.658,0.247
		c0.24,0.088,0.533,0.17,0.873,0.247c0.34,0.077,0.773,0.115,1.299,0.115c1.406,0,2.827-0.307,4.263-0.922
		c1.439-0.614,2.735-1.481,3.886-2.601c1.153-1.119,2.097-2.453,2.832-4c0.736-1.547,1.103-3.254,1.103-5.119
		c0-0.988-0.133-1.926-0.395-2.815c-0.265-0.889-0.693-1.668-1.286-2.337c-0.59-0.669-1.354-1.207-2.287-1.613
		c-0.933-0.405-2.069-0.609-3.408-0.609c-1.581,0-3.122,0.345-4.626,1.037c-1.504,0.691-2.945,1.629-4.328,2.815
		s-2.695,2.59-3.933,4.214c-1.241,1.624-2.387,3.364-3.44,5.218c-1.056,1.855-2.004,3.786-2.85,5.795
		c-0.843,2.008-1.564,4.011-2.157,6.008c-0.59,1.998-1.048,3.934-1.366,5.811c-0.318,1.877-0.475,3.605-0.475,5.185
		c0,2.262,0.278,4.231,0.838,5.91c0.56,1.68,1.356,3.079,2.387,4.198c1.031,1.12,2.294,1.953,3.786,2.502
		c1.494,0.549,3.173,0.823,5.039,0.823c2.324,0,4.494-0.291,6.5-0.873c2.009-0.58,3.923-1.344,5.745-2.288
		c1.821-0.943,3.583-2.008,5.284-3.193c1.701-1.186,3.403-2.376,5.104-3.573c1.701-1.196,3.435-2.337,5.202-3.424
		c1.766-1.086,1.076-3.284,3.05-4.029V52.083z"/>
	<path id="XMLID_7_" style="fill:#EEEEEE;" d="M191.06,38.552c0.637,1.273,1.113,2.617,1.432,4.033
		c0.318,1.415,0.477,2.772,0.477,4.066c0,1.295-0.143,2.601-0.428,3.917c-0.285,1.317-0.697,2.591-1.235,3.819
		c-0.538,1.23-1.196,2.382-1.975,3.456c-0.779,1.076-1.668,2.009-2.666,2.798c-1,0.791-2.09,1.416-3.276,1.876
		c-1.185,0.462-2.447,0.692-3.786,0.692c-1.932,0-3.584-0.423-4.955-1.267c-1.372-0.844-2.497-1.948-3.374-3.309
		c-0.878-1.361-1.52-2.897-1.927-4.609c-0.407-1.713-0.609-3.446-0.609-5.202c0-2.414,0.363-4.67,1.087-6.766
		c0.724-2.095,1.761-3.917,3.111-5.465c1.35-1.547,3.001-2.765,4.954-3.655c1.954-0.889,4.148-1.333,6.585-1.333
		c2.084,0,4.038,0.324,5.86,0.971c1.821,0.647,3.528,1.514,5.119,2.601c1.591,1.086,3.072,2.332,4.445,3.736
		c1.371,1.405,2.651,2.854,3.836,4.346l-0.626,4.642c-0.593-0.791-1.394-1.646-2.403-2.568c-1.01-0.922-2.08-1.821-3.21-2.7
		c-1.131-0.878-2.244-1.706-3.341-2.486c-1.098-0.779-2.042-1.432-2.831-1.958L191.06,38.552z M180.887,56.889
		c0.746,0,1.47-0.378,2.173-1.136c0.702-0.757,1.317-1.711,1.844-2.864c0.527-1.152,0.948-2.426,1.267-3.819
		c0.318-1.394,0.478-2.727,0.478-4.001c0-1.008-0.078-1.947-0.231-2.814c-0.154-0.867-0.384-1.618-0.691-2.256
		c-0.308-0.636-0.703-1.141-1.186-1.514c-0.483-0.373-1.065-0.56-1.744-0.56c-0.901,0-1.756,0.385-2.568,1.153
		s-1.526,1.75-2.14,2.946c-0.614,1.196-1.097,2.518-1.449,3.967s-0.527,2.844-0.527,4.182c0,0.921,0.088,1.789,0.264,2.601
		c0.175,0.812,0.449,1.52,0.823,2.123c0.373,0.604,0.867,1.086,1.481,1.449C179.296,56.707,180.031,56.889,180.887,56.889z"/>
	<path id="XMLID_11_" style="fill:#EEEEEE;" d="M206.928,63.21c-1.185,0-2.288-0.522-3.309-1.564
		c-1.02-1.042-1.909-2.442-2.666-4.197c-0.758-1.756-1.35-3.792-1.778-6.107c-0.429-2.316-0.643-4.746-0.643-7.292
		c0-1.953,0.143-4.077,0.429-6.371c0.284-2.294,0.702-4.659,1.251-7.095c0.548-2.436,1.201-4.883,1.958-7.341
		c0.758-2.458,1.614-4.818,2.568-7.078c0.954-2.261,1.992-4.373,3.111-6.338c1.12-1.964,2.293-3.676,3.523-5.136
		c1.228-1.459,2.513-2.606,3.852-3.44c1.339-0.834,2.7-1.251,4.082-1.251c0.943,0,1.723,0.214,2.338,0.642
		c0.614,0.428,1.097,0.993,1.449,1.696c0.35,0.702,0.598,1.497,0.741,2.387c0.143,0.889,0.214,1.794,0.214,2.716
		c0,2.063-0.236,4.165-0.708,6.304s-1.108,4.292-1.909,6.453c-0.802,2.162-1.729,4.33-2.782,6.502
		c-1.053,2.173-2.152,4.33-3.293,6.47s-2.288,4.247-3.44,6.321c-1.152,2.074-2.233,4.098-3.243,6.074
		c-0.11,0.22-0.225,0.505-0.345,0.856c-0.121,0.352-0.236,0.731-0.347,1.136c-0.11,0.407-0.219,0.839-0.329,1.301
		c-0.11,0.46-0.198,0.911-0.263,1.35v0.46c0,0.572,0.06,1.126,0.18,1.663c0.121,0.538,0.269,1.021,0.445,1.449
		c0.175,0.428,0.362,0.769,0.559,1.021c0.198,0.253,0.384,0.379,0.559,0.379c0.417,0,0.894-0.088,1.432-0.264
		c0.538-0.175,1.108-0.412,1.713-0.708c0.603-0.295,1.222-0.636,1.86-1.02c0.635-0.384,1.251-0.774,1.843-1.17
		c1.384-0.922,2.832-1.985,4.346-3.193l2.7,6.913c-1.954,1.405-3.884,2.656-5.795,3.753c-0.834,0.462-1.695,0.917-2.585,1.366
		c-0.888,0.45-1.783,0.851-2.682,1.202c-0.901,0.352-1.778,0.631-2.635,0.839C208.475,63.106,207.673,63.21,206.928,63.21z
		 M206.96,36.872c0.988-1.756,2.037-3.731,3.145-5.926c1.107-2.194,2.155-4.455,3.144-6.782c0.987-2.326,1.844-4.647,2.568-6.963
		c0.724-2.316,1.185-4.472,1.382-6.469c0-0.636-0.016-1.18-0.049-1.629c-0.034-0.45-0.138-0.675-0.313-0.675
		c-0.638,0-1.324,0.412-2.058,1.235c-0.736,0.823-1.471,1.937-2.206,3.341c-0.737,1.405-1.439,3.04-2.108,4.905
		c-0.669,1.866-1.267,3.852-1.794,5.959c-0.527,2.107-0.944,4.275-1.251,6.502C207.114,32.598,206.96,34.766,206.96,36.872z"/>
	<path id="XMLID_14_" style="fill:#EEEEEE;" d="M238.73,38.552c0.637,1.273,1.113,2.617,1.432,4.033
		c0.318,1.415,0.477,2.772,0.477,4.066c0,1.295-0.143,2.601-0.428,3.917c-0.285,1.317-0.697,2.591-1.235,3.819
		c-0.538,1.23-1.196,2.382-1.975,3.456c-0.779,1.076-1.668,2.009-2.666,2.798c-1,0.791-2.09,1.416-3.276,1.876
		c-1.185,0.462-2.447,0.692-3.786,0.692c-1.932,0-3.584-0.423-4.955-1.267c-1.372-0.844-2.497-1.948-3.374-3.309
		c-0.878-1.361-1.52-2.897-1.927-4.609c-0.407-1.713-0.609-3.446-0.609-5.202c0-2.414,0.363-4.67,1.087-6.766
		c0.724-2.095,1.761-3.917,3.111-5.465c1.35-1.547,3.001-2.765,4.954-3.655c1.954-0.889,4.148-1.333,6.585-1.333
		c2.084,0,4.038,0.324,5.86,0.971c1.821,0.647,3.528,1.514,5.119,2.601c1.591,1.086,3.072,2.332,4.445,3.736
		c1.371,1.405,2.651,2.854,3.836,4.346l-0.626,4.642c-0.593-0.791-1.394-1.646-2.403-2.568c-1.01-0.922-2.08-1.821-3.21-2.7
		c-1.131-0.878-2.244-1.706-3.341-2.486c-1.098-0.779-2.042-1.432-2.831-1.958L238.73,38.552z M228.557,56.889
		c0.746,0,1.47-0.378,2.173-1.136c0.702-0.757,1.317-1.711,1.844-2.864c0.527-1.152,0.948-2.426,1.267-3.819
		c0.318-1.394,0.478-2.727,0.478-4.001c0-1.008-0.078-1.947-0.231-2.814c-0.154-0.867-0.384-1.618-0.691-2.256
		c-0.308-0.636-0.703-1.141-1.186-1.514c-0.483-0.373-1.065-0.56-1.744-0.56c-0.901,0-1.756,0.385-2.568,1.153
		s-1.526,1.75-2.14,2.946c-0.614,1.196-1.097,2.518-1.449,3.967s-0.527,2.844-0.527,4.182c0,0.921,0.088,1.789,0.264,2.601
		c0.175,0.812,0.449,1.52,0.823,2.123c0.373,0.604,0.867,1.086,1.481,1.449C226.966,56.707,227.701,56.889,228.557,56.889z"/>
	<path id="XMLID_17_" style="fill:#EEEEEE;" d="M247.258,56.33c0-0.966,0.054-2.09,0.164-3.375c0.11-1.284,0.258-2.638,0.444-4.066
		c0.186-1.426,0.407-2.881,0.659-4.362c0.251-1.481,0.52-2.891,0.806-4.23c0.285-1.339,0.572-2.568,0.857-3.687
		c0.285-1.119,0.57-2.041,0.856-2.765c0.175-0.482,0.35-0.867,0.527-1.152c0.175-0.285,0.379-0.51,0.609-0.675
		c0.23-0.165,0.515-0.275,0.856-0.33c0.34-0.054,0.763-0.082,1.267-0.082c0.57,0,1.016,0.028,1.334,0.082
		c0.318,0.055,0.554,0.187,0.708,0.395c0.154,0.209,0.246,0.51,0.28,0.905c0.033,0.395,0.049,0.933,0.049,1.613
		c0,0.813,0,1.795,0,2.947c0,1.152,0.021,2.288,0.066,3.408h0.362c0.439-0.878,0.933-1.86,1.482-2.947
		c0.548-1.086,1.185-2.101,1.909-3.046c0.724-0.943,1.547-1.739,2.469-2.386c0.922-0.647,1.985-0.971,3.193-0.971
		c0.417,0,0.823,0.071,1.218,0.214c0.395,0.143,0.741,0.346,1.037,0.609c0.296,0.263,0.532,0.587,0.708,0.971
		c0.175,0.385,0.263,0.818,0.263,1.3c0,0.373-0.055,0.895-0.164,1.564c-0.11,0.67-0.23,1.372-0.363,2.107
		c-0.131,0.736-0.253,1.449-0.362,2.14c-0.11,0.692-0.165,1.268-0.165,1.728c0,0.791,0.078,1.449,0.23,1.975
		c0.154,0.527,0.357,0.95,0.609,1.267c0.253,0.319,0.538,0.544,0.857,0.676c0.318,0.131,0.652,0.198,1.003,0.198
		c0.988,0,2.009-0.219,3.062-0.659c1.053-0.438,2.019-0.932,2.897-1.481c1.031-0.636,2.04-1.361,3.029-2.172l-0.494,7.703
		c-0.57,0.374-1.218,0.791-1.943,1.251c-0.724,0.462-1.497,0.896-2.321,1.301c-0.823,0.407-1.679,0.747-2.568,1.021
		c-0.888,0.274-1.794,0.412-2.716,0.412c-1.646,0-2.974-0.335-3.983-1.005s-1.811-1.547-2.403-2.633
		c-0.593-1.087-1.032-2.304-1.317-3.654s-0.515-2.716-0.692-4.099h-0.527l-5.892,16.428c-0.308,0.856-0.599,1.564-0.873,2.124
		c-0.274,0.559-0.554,1.015-0.839,1.366c-0.285,0.352-0.593,0.598-0.922,0.741s-0.691,0.214-1.086,0.214
		c-0.901,0-1.625-0.191-2.173-0.577c-0.549-0.383-0.971-0.899-1.267-1.546c-0.296-0.648-0.494-1.384-0.593-2.207
		C247.307,58.057,247.258,57.208,247.258,56.33z"/>
	<path id="XMLID_19_" style="fill:#EEEEEE;" d="M295.718,56.198c-0.789,0.724-1.773,1.497-2.946,2.321
		c-1.175,0.823-2.442,1.58-3.803,2.272c-1.361,0.691-2.748,1.267-4.165,1.728c-1.415,0.462-2.76,0.692-4.033,0.692
		c-1.141,0-2.102-0.159-2.88-0.478c-0.779-0.318-1.411-0.762-1.894-1.332c-0.483-0.57-0.828-1.269-1.037-2.092
		c-0.209-0.822-0.313-1.728-0.313-2.716c0-1.382,0.159-2.99,0.478-4.823c0.318-1.833,0.708-3.73,1.168-5.696
		c0.462-1.964,0.949-3.922,1.465-5.877c0.515-1.953,0.972-3.753,1.366-5.399c0.154-0.57,0.462-1.058,0.922-1.465
		c0.462-0.406,0.982-0.735,1.564-0.988c0.582-0.252,1.186-0.438,1.811-0.56c0.625-0.12,1.19-0.181,1.695-0.181
		c0.922,0,1.547,0.17,1.876,0.51c0.329,0.34,0.494,0.796,0.494,1.366c0,0.483-0.11,1.18-0.329,2.09
		c-0.22,0.911-0.494,1.943-0.823,3.095c-0.329,1.152-0.681,2.393-1.053,3.72c-0.374,1.329-0.724,2.656-1.053,3.984
		c-0.33,1.329-0.604,2.623-0.823,3.884c-0.22,1.262-0.33,2.398-0.33,3.408c0,0.988,0.11,1.773,0.33,2.354
		c0.219,0.582,0.669,0.872,1.35,0.872c0.789,0,1.668-0.274,2.633-0.823c0.966-0.548,1.943-1.212,2.93-1.992
		c0.988-0.778,1.954-1.585,2.897-2.419c0.943-0.834,1.778-1.547,2.502-2.14V56.198z M281.002,22.354
		c0-0.505,0.109-1.075,0.329-1.712c0.219-0.636,0.575-1.235,1.07-1.795c0.494-0.559,1.152-1.031,1.975-1.415
		c0.823-0.383,1.849-0.576,3.079-0.576c0.768,0,1.492,0.088,2.173,0.263c0.679,0.176,1.272,0.445,1.778,0.807
		c0.504,0.362,0.904,0.839,1.201,1.432c0.297,0.593,0.444,1.295,0.444,2.107c0,0.746-0.12,1.471-0.362,2.173
		c-0.241,0.702-0.625,1.328-1.152,1.876c-0.527,0.549-1.191,0.993-1.992,1.333c-0.802,0.341-1.761,0.51-2.881,0.51
		c-1.932,0-3.358-0.455-4.28-1.366C281.463,25.081,281.002,23.868,281.002,22.354z"/>
	<path id="XMLID_22_" style="fill:#EEEEEE;" d="M290.057,57.054c0-0.483,0.086-0.883,0.263-1.202
		c0.175-0.318,0.407-0.619,0.692-0.906c0.285-0.284,0.614-0.575,0.987-0.872c0.373-0.296,0.758-0.663,1.152-1.103L303.39,39.21
		c-0.395-0.175-0.736-0.34-1.021-0.494c-0.285-0.153-0.543-0.291-0.773-0.412c-0.231-0.121-0.467-0.214-0.708-0.28
		c-0.243-0.066-0.505-0.099-0.791-0.099c-0.703,0-1.284,0.012-1.745,0.033c-0.46,0.022-0.851,0.099-1.168,0.231
		c-0.318,0.131-0.604,0.329-0.856,0.592c-0.253,0.263-0.533,0.637-0.839,1.119c-0.681,1.054-1.251,1.828-1.713,2.321
		c-0.46,0.494-0.878,0.741-1.251,0.741c-0.352,0-0.598-0.159-0.741-0.477c-0.143-0.318-0.214-0.741-0.214-1.267
		c0-0.22,0.011-0.455,0.033-0.708c0.023-0.252,0.055-0.51,0.099-0.774c0.33-1.909,0.802-3.456,1.416-4.642
		c0.614-1.185,1.301-2.102,2.058-2.749c0.757-0.647,1.547-1.086,2.371-1.317c0.823-0.231,1.585-0.346,2.288-0.346
		c0.527,0,1.053,0.126,1.58,0.378c0.527,0.253,1.047,0.533,1.564,0.84c0.515,0.307,1.042,0.587,1.58,0.839
		c0.538,0.252,1.092,0.39,1.663,0.412c0.439,0.022,0.839,0.033,1.202,0.033c0.362,0,0.696,0,1.003,0
		c0.878,0,1.581-0.016,2.108-0.049c0.527-0.033,0.927-0.071,1.201-0.115c0.274-0.044,0.467-0.083,0.577-0.115
		c0.109-0.033,0.198-0.049,0.263-0.049c0.768,0,1.322,0.269,1.663,0.806c0.34,0.539,0.51,1.268,0.51,2.19
		c0,0.592-0.066,1.229-0.198,1.909c-0.044,0.176-0.263,0.401-0.658,0.675c-0.395,0.275-1.053,0.532-1.975,0.774
		c-0.264,0.483-0.703,1.163-1.317,2.041c-0.614,0.878-1.322,1.855-2.123,2.93c-0.802,1.076-1.635,2.184-2.502,3.325
		c-0.868,1.141-1.69,2.212-2.469,3.21c-0.779,0.998-1.46,1.865-2.042,2.601c-0.582,0.736-0.971,1.235-1.168,1.497l-0.165,0.659
		c0.023,0,0.22,0.076,0.593,0.23c0.373,0.154,0.812,0.324,1.317,0.51c0.504,0.186,1.037,0.357,1.596,0.51
		c0.56,0.154,1.048,0.23,1.465,0.23c0.922,0,1.761-0.138,2.52-0.412c0.757-0.274,1.459-0.62,2.107-1.037
		c0.647-0.417,1.251-0.861,1.81-1.334c0.56-0.472,1.097-0.916,1.614-1.334c0.515-0.417,1.026-0.762,1.53-1.037
		c0.505-0.274,1.032-0.412,1.581-0.412c0.417,0,0.794,0.099,1.136,0.296c0.339,0.198,0.625,0.45,0.856,0.757
		c0.23,0.308,0.405,0.654,0.527,1.037c0.12,0.385,0.181,0.763,0.181,1.136c0,0.637-0.243,1.301-0.724,1.992
		c-0.483,0.692-1.131,1.367-1.943,2.025s-1.756,1.284-2.831,1.876c-1.076,0.593-2.201,1.115-3.375,1.564
		c-1.173,0.45-2.371,0.807-3.588,1.07c-1.218,0.264-2.366,0.395-3.44,0.395c-0.089,0-0.319-0.044-0.692-0.131
		c-0.374-0.088-0.867-0.235-1.481-0.444c-0.616-0.209-1.329-0.478-2.14-0.807c-0.812-0.329-1.701-0.746-2.666-1.251
		c-0.834,0.263-1.559,0.395-2.173,0.395c-0.659,0-1.23-0.115-1.713-0.347c-0.483-0.23-0.883-0.543-1.201-0.938
		c-0.319-0.395-0.555-0.844-0.708-1.35C290.133,58.162,290.057,57.624,290.057,57.054z"/>
	<path id="XMLID_24_" style="fill:#EEEEEE;" d="M314.938,56.25c0-0.966,0.054-2.09,0.164-3.375c0.11-1.284,0.258-2.638,0.444-4.066
		c0.186-1.426,0.407-2.881,0.659-4.362c0.251-1.481,0.52-2.891,0.806-4.23c0.285-1.339,0.572-2.568,0.857-3.687
		c0.285-1.119,0.57-2.041,0.856-2.765c0.175-0.482,0.35-0.867,0.527-1.152c0.175-0.285,0.379-0.51,0.609-0.675
		c0.23-0.165,0.515-0.275,0.856-0.33c0.34-0.054,0.763-0.082,1.267-0.082c0.57,0,1.016,0.028,1.334,0.082
		c0.318,0.055,0.554,0.187,0.708,0.395c0.154,0.209,0.246,0.51,0.28,0.905c0.033,0.395,0.049,0.933,0.049,1.613
		c0,0.813,0,1.795,0,2.947c0,1.152,0.021,2.288,0.066,3.408h0.362c0.439-0.878,0.933-1.86,1.482-2.947
		c0.548-1.086,1.185-2.101,1.909-3.046c0.724-0.943,1.547-1.739,2.469-2.386c0.922-0.647,1.985-0.971,3.193-0.971
		c0.417,0,0.823,0.071,1.218,0.214c0.395,0.143,0.741,0.346,1.037,0.609c0.296,0.263,0.532,0.587,0.708,0.971
		c0.175,0.385,0.263,0.818,0.263,1.3c0,0.373-0.055,0.895-0.164,1.564c-0.11,0.67-0.23,1.372-0.363,2.107
		c-0.131,0.736-0.253,1.449-0.362,2.14c-0.11,0.692-0.165,1.268-0.165,1.728c0,0.791,0.078,1.449,0.23,1.975
		c0.154,0.527,0.357,0.95,0.609,1.267c0.253,0.319,0.538,0.544,0.857,0.676c0.318,0.131,0.652,0.198,1.003,0.198
		c0.988,0,2.009-0.219,3.062-0.659c1.053-0.438,2.019-0.932,2.897-1.481c0.01-0.006,0.021-0.013,0.031-0.019
		c1.25-0.773,2.85,0.145,2.756,1.611l-0.195,3.043c-0.036,0.566-0.335,1.078-0.811,1.385c-0.37,0.239-0.767,0.493-1.189,0.761
		c-0.724,0.462-1.497,0.896-2.321,1.301c-0.92,0.454-1.881,0.826-2.884,1.115c-0.595,0.171-1.212,0.277-1.83,0.305
		c-1.913,0.084-3.43-0.247-4.554-0.992c-1.01-0.669-1.811-1.547-2.403-2.633c-0.593-1.087-1.032-2.304-1.317-3.654
		c-0.285-1.35-0.515-2.716-0.692-4.099h-0.527l-5.892,16.428c-0.308,0.856-0.599,1.564-0.873,2.124
		c-0.274,0.559-0.554,1.015-0.839,1.366c-0.285,0.352-0.593,0.598-0.922,0.741s-0.691,0.214-1.086,0.214
		c-0.901,0-1.625-0.191-2.173-0.577c-0.549-0.383-0.971-0.899-1.267-1.546c-0.297-0.648-0.494-1.384-0.593-2.207
		C314.987,57.977,314.938,57.128,314.938,56.25z"/>
</g>
</svg>
