<?xml version="1.0" encoding="utf-8"?>
<!-- Generator: Adobe Illustrator 19.0.0, SVG Export Plug-In . SVG Version: 6.00 Build 0)  -->
<svg version="1.1" id="Layer_1" xmlns="http://www.w3.org/2000/svg" xmlns:xlink="http://www.w3.org/1999/xlink" x="0px" y="0px"
	 viewBox="0 16.5 347.5 69.5" style="enable-background:new 0 16.5 347.5 69.5;" xml:space="preserve">
<style type="text/css">
	.st0{fill:#FFA000;}
	.st1{fill:#D81B60;}
	.st2{fill:#283593;}
	.st3{fill:#212121;}
</style>
<path id="XMLID_4_" class="st0" d="M16,78.3l-9.2-9.2c-9.1-9.1-9.1-23.7,0-32.8l9.2-9.2c9.1-9.1,23.7-9.1,32.8,0l9.2,9.2
	c9.1,9.1,9.1,23.7,0,32.8l-9.2,9.2C39.8,87.3,25.1,87.3,16,78.3z"/>
<path id="XMLID_5_" class="st1" d="M40.9,78.3l-9.2-9.2c-9.1-9.1-9.1-23.7,0-32.8l9.2-9.2c9.1-9.1,23.7-9.1,32.8,0l9.2,9.2
	c9.1,9.1,9.1,23.7,0,32.8l-9.2,9.2C64.7,87.3,50,87.3,40.9,78.3z"/>
<path id="XMLID_1_" class="st2" d="M65.8,78.3l-9.2-9.2c-9.1-9.1-9.1-23.7,0-32.8l9.2-9.2c9.1-9.1,23.7-9.1,32.8,0l9.2,9.2
	c9.1,9.1,9.1,23.7,0,32.8l-9.2,9.2C89.6,87.3,74.9,87.3,65.8,78.3z"/>
<g id="XMLID_8_">
	<path id="XMLID_3_" class="st3" d="M174.8,68.6c-1.1,0.5,0.4,1.1-0.6,1.8c-1,0.8-2,1.6-3.1,2.5c-1,0.9-2.1,1.9-3.2,2.8
		c-1.1,1-2.3,2-3.6,3c-1.3,1-2.7,1.9-4.2,2.8c-1.5,0.9-3.2,1.7-5,2.3c-1.8,0.7-3.9,1.2-6.1,1.6c-2.2,0.4-4.6,0.6-7.3,0.6
		c-3,0-5.6-0.6-8-1.8c-2.4-1.2-4.4-2.8-6.1-4.8c-1.7-2-3-4.4-3.9-7.1s-1.4-5.5-1.4-8.5c0-2,0.2-4.2,0.7-6.5c0.4-2.3,1.1-4.7,1.9-7.1
		c0.8-2.4,1.8-4.8,3-7.2s2.5-4.7,4-6.9c1.5-2.2,3.2-4.2,5-6.1s3.7-3.5,5.8-4.9c2-1.4,4.2-2.5,6.5-3.3c2.3-0.8,4.6-1.2,7-1.2
		c1.6,0,3.2,0.3,4.8,0.8c1.6,0.6,3.1,1.4,4.4,2.6c1.3,1.2,2.4,2.6,3.2,4.4c0.8,1.8,1.2,3.9,1.2,6.3c0,1.6-0.3,3.3-0.8,4.9
		c-0.5,1.7-1.2,3.2-2.1,4.8c-0.9,1.5-2,3-3.2,4.3c-1.2,1.3-2.5,2.5-3.9,3.5c-1.4,1-2.9,1.8-4.4,2.3c-1.5,0.6-3,0.9-4.5,0.9
		c-2,0-3.5-0.3-4.5-0.8c-1-0.5-1.5-1.3-1.5-2.3c0-0.2,0-0.4,0-0.6c0-0.2,0-0.5,0-0.8c0-0.4,0-0.8,0.1-1.2c0-0.4,0.1-0.8,0.3-1.2
		c0.1-0.4,0.3-0.6,0.6-0.9c0.3-0.2,0.6-0.3,1-0.3c0.3,0,0.5,0,0.7,0.1c0.2,0.1,0.4,0.2,0.7,0.2c0.2,0.1,0.5,0.2,0.9,0.2
		c0.3,0.1,0.8,0.1,1.3,0.1c1.4,0,2.8-0.3,4.3-0.9c1.4-0.6,2.7-1.5,3.9-2.6c1.2-1.1,2.1-2.5,2.8-4c0.7-1.5,1.1-3.3,1.1-5.1
		c0-1-0.1-1.9-0.4-2.8c-0.3-0.9-0.7-1.7-1.3-2.3c-0.6-0.7-1.4-1.2-2.3-1.6c-0.9-0.4-2.1-0.6-3.4-0.6c-1.6,0-3.1,0.3-4.6,1
		c-1.5,0.7-2.9,1.6-4.3,2.8s-2.7,2.6-3.9,4.2c-1.2,1.6-2.4,3.4-3.4,5.2c-1.1,1.9-2,3.8-2.9,5.8c-0.8,2-1.6,4-2.2,6
		c-0.6,2-1,3.9-1.4,5.8c-0.3,1.9-0.5,3.6-0.5,5.2c0,2.3,0.3,4.2,0.8,5.9c0.6,1.7,1.4,3.1,2.4,4.2c1,1.1,2.3,2,3.8,2.5
		c1.5,0.5,3.2,0.8,5,0.8c2.3,0,4.5-0.3,6.5-0.9c2-0.6,3.9-1.3,5.7-2.3c1.8-0.9,3.6-2,5.3-3.2c1.7-1.2,3.4-2.4,5.1-3.6
		c1.7-1.2,3.4-2.3,5.2-3.4c1.8-1.1,1.1-3.3,3.1-4L174.8,68.6L174.8,68.6z"/>
	<path id="XMLID_7_" class="st3" d="M191.1,55c0.6,1.3,1.1,2.6,1.4,4c0.3,1.4,0.5,2.8,0.5,4.1c0,1.3-0.1,2.6-0.4,3.9
		c-0.3,1.3-0.7,2.6-1.2,3.8c-0.5,1.2-1.2,2.4-2,3.5c-0.8,1.1-1.7,2-2.7,2.8c-1,0.8-2.1,1.4-3.3,1.9c-1.2,0.5-2.4,0.7-3.8,0.7
		c-1.9,0-3.6-0.4-5-1.3c-1.4-0.8-2.5-1.9-3.4-3.3c-0.9-1.4-1.5-2.9-1.9-4.6c-0.4-1.7-0.6-3.4-0.6-5.2c0-2.4,0.4-4.7,1.1-6.8
		c0.7-2.1,1.8-3.9,3.1-5.5c1.4-1.5,3-2.8,5-3.7c2-0.9,4.1-1.3,6.6-1.3c2.1,0,4,0.3,5.9,1c1.8,0.6,3.5,1.5,5.1,2.6
		c1.6,1.1,3.1,2.3,4.4,3.7c1.4,1.4,2.7,2.9,3.8,4.3l-0.6,4.6c-0.6-0.8-1.4-1.6-2.4-2.6c-1-0.9-2.1-1.8-3.2-2.7
		c-1.1-0.9-2.2-1.7-3.3-2.5c-1.1-0.8-2-1.4-2.8-2L191.1,55z M180.9,73.4c0.7,0,1.5-0.4,2.2-1.1c0.7-0.8,1.3-1.7,1.8-2.9
		c0.5-1.2,0.9-2.4,1.3-3.8c0.3-1.4,0.5-2.7,0.5-4c0-1-0.1-1.9-0.2-2.8c-0.2-0.9-0.4-1.6-0.7-2.3c-0.3-0.6-0.7-1.1-1.2-1.5
		s-1.1-0.6-1.7-0.6c-0.9,0-1.8,0.4-2.6,1.2s-1.5,1.8-2.1,2.9s-1.1,2.5-1.4,4s-0.5,2.8-0.5,4.2c0,0.9,0.1,1.8,0.3,2.6
		c0.2,0.8,0.4,1.5,0.8,2.1c0.4,0.6,0.9,1.1,1.5,1.4C179.3,73.2,180,73.4,180.9,73.4z"/>
	<path id="XMLID_11_" class="st3" d="M206.9,79.7c-1.2,0-2.3-0.5-3.3-1.6c-1-1-1.9-2.4-2.7-4.2c-0.8-1.8-1.4-3.8-1.8-6.1
		c-0.4-2.3-0.6-4.7-0.6-7.3c0-2,0.1-4.1,0.4-6.4c0.3-2.3,0.7-4.7,1.3-7.1c0.5-2.4,1.2-4.9,2-7.3c0.8-2.5,1.6-4.8,2.6-7.1
		c1-2.3,2-4.4,3.1-6.3c1.1-2,2.3-3.7,3.5-5.1c1.2-1.5,2.5-2.6,3.9-3.4s2.7-1.3,4.1-1.3c0.9,0,1.7,0.2,2.3,0.6c0.6,0.4,1.1,1,1.4,1.7
		c0.4,0.7,0.6,1.5,0.7,2.4c0.1,0.9,0.2,1.8,0.2,2.7c0,2.1-0.2,4.2-0.7,6.3s-1.1,4.3-1.9,6.5c-0.8,2.2-1.7,4.3-2.8,6.5
		c-1.1,2.2-2.2,4.3-3.3,6.5s-2.3,4.2-3.4,6.3c-1.2,2.1-2.2,4.1-3.2,6.1c-0.1,0.2-0.2,0.5-0.3,0.9c-0.1,0.4-0.2,0.7-0.3,1.1
		c-0.1,0.4-0.2,0.8-0.3,1.3c-0.1,0.5-0.2,0.9-0.3,1.3v0.5c0,0.6,0.1,1.1,0.2,1.7c0.1,0.5,0.3,1,0.4,1.4c0.2,0.4,0.4,0.8,0.6,1
		c0.2,0.3,0.4,0.4,0.6,0.4c0.4,0,0.9-0.1,1.4-0.3c0.5-0.2,1.1-0.4,1.7-0.7c0.6-0.3,1.2-0.6,1.9-1c0.6-0.4,1.3-0.8,1.8-1.2
		c1.4-0.9,2.8-2,4.3-3.2l2.7,6.9c-2,1.4-3.9,2.7-5.8,3.8c-0.8,0.5-1.7,0.9-2.6,1.4c-0.9,0.5-1.8,0.9-2.7,1.2
		c-0.9,0.4-1.8,0.6-2.6,0.8C208.5,79.6,207.7,79.7,206.9,79.7z M207,53.3c1-1.8,2-3.7,3.1-5.9c1.1-2.2,2.2-4.5,3.1-6.8
		c1-2.3,1.8-4.6,2.6-7c0.7-2.3,1.2-4.5,1.4-6.5c0-0.6,0-1.2,0-1.6c0-0.4-0.1-0.7-0.3-0.7c-0.6,0-1.3,0.4-2.1,1.2
		c-0.7,0.8-1.5,1.9-2.2,3.3c-0.7,1.4-1.4,3-2.1,4.9c-0.7,1.9-1.3,3.9-1.8,6c-0.5,2.1-0.9,4.3-1.3,6.5C207.1,49.1,207,51.2,207,53.3z
		"/>
	<path id="XMLID_14_" class="st3" d="M238.7,55c0.6,1.3,1.1,2.6,1.4,4c0.3,1.4,0.5,2.8,0.5,4.1c0,1.3-0.1,2.6-0.4,3.9
		c-0.3,1.3-0.7,2.6-1.2,3.8c-0.5,1.2-1.2,2.4-2,3.5c-0.8,1.1-1.7,2-2.7,2.8c-1,0.8-2.1,1.4-3.3,1.9c-1.2,0.5-2.4,0.7-3.8,0.7
		c-1.9,0-3.6-0.4-5-1.3c-1.4-0.8-2.5-1.9-3.4-3.3c-0.9-1.4-1.5-2.9-1.9-4.6c-0.4-1.7-0.6-3.4-0.6-5.2c0-2.4,0.4-4.7,1.1-6.8
		c0.7-2.1,1.8-3.9,3.1-5.5c1.4-1.5,3-2.8,5-3.7c2-0.9,4.1-1.3,6.6-1.3c2.1,0,4,0.3,5.9,1c1.8,0.6,3.5,1.5,5.1,2.6
		c1.6,1.1,3.1,2.3,4.4,3.7c1.4,1.4,2.7,2.9,3.8,4.3l-0.6,4.6c-0.6-0.8-1.4-1.6-2.4-2.6c-1-0.9-2.1-1.8-3.2-2.7
		c-1.1-0.9-2.2-1.7-3.3-2.5c-1.1-0.8-2-1.4-2.8-2L238.7,55z M228.6,73.4c0.7,0,1.5-0.4,2.2-1.1c0.7-0.8,1.3-1.7,1.8-2.9
		c0.5-1.2,0.9-2.4,1.3-3.8c0.3-1.4,0.5-2.7,0.5-4c0-1-0.1-1.9-0.2-2.8c-0.2-0.9-0.4-1.6-0.7-2.3c-0.3-0.6-0.7-1.1-1.2-1.5
		s-1.1-0.6-1.7-0.6c-0.9,0-1.8,0.4-2.6,1.2s-1.5,1.8-2.1,2.9s-1.1,2.5-1.4,4s-0.5,2.8-0.5,4.2c0,0.9,0.1,1.8,0.3,2.6
		c0.2,0.8,0.4,1.5,0.8,2.1c0.4,0.6,0.9,1.1,1.5,1.4C227,73.2,227.7,73.4,228.6,73.4z"/>
	<path id="XMLID_17_" class="st3" d="M247.3,72.8c0-1,0.1-2.1,0.2-3.4c0.1-1.3,0.3-2.6,0.4-4.1c0.2-1.4,0.4-2.9,0.7-4.4
		c0.3-1.5,0.5-2.9,0.8-4.2c0.3-1.3,0.6-2.6,0.9-3.7c0.3-1.1,0.6-2,0.9-2.8c0.2-0.5,0.4-0.9,0.5-1.2c0.2-0.3,0.4-0.5,0.6-0.7
		s0.5-0.3,0.9-0.3c0.3-0.1,0.8-0.1,1.3-0.1c0.6,0,1,0,1.3,0.1c0.3,0.1,0.6,0.2,0.7,0.4c0.2,0.2,0.2,0.5,0.3,0.9c0,0.4,0,0.9,0,1.6
		c0,0.8,0,1.8,0,2.9s0,2.3,0.1,3.4h0.4c0.4-0.9,0.9-1.9,1.5-2.9c0.5-1.1,1.2-2.1,1.9-3c0.7-0.9,1.5-1.7,2.5-2.4c0.9-0.6,2-1,3.2-1
		c0.4,0,0.8,0.1,1.2,0.2s0.7,0.3,1,0.6s0.5,0.6,0.7,1c0.2,0.4,0.3,0.8,0.3,1.3c0,0.4-0.1,0.9-0.2,1.6c-0.1,0.7-0.2,1.4-0.4,2.1
		c-0.1,0.7-0.3,1.4-0.4,2.1c-0.1,0.7-0.2,1.3-0.2,1.7c0,0.8,0.1,1.4,0.2,2c0.2,0.5,0.4,1,0.6,1.3c0.3,0.3,0.5,0.5,0.9,0.7
		c0.3,0.1,0.7,0.2,1,0.2c1,0,2-0.2,3.1-0.7c1.1-0.4,2-0.9,2.9-1.5c1-0.6,2-1.4,3-2.2l-0.5,7.7c-0.6,0.4-1.2,0.8-1.9,1.3
		c-0.7,0.5-1.5,0.9-2.3,1.3c-0.8,0.4-1.7,0.7-2.6,1c-0.9,0.3-1.8,0.4-2.7,0.4c-1.6,0-3-0.3-4-1c-1-0.7-1.8-1.5-2.4-2.6
		c-0.6-1.1-1-2.3-1.3-3.7s-0.5-2.7-0.7-4.1H261l-5.9,16.4c-0.3,0.9-0.6,1.6-0.9,2.1c-0.3,0.6-0.6,1-0.8,1.4
		c-0.3,0.4-0.6,0.6-0.9,0.7s-0.7,0.2-1.1,0.2c-0.9,0-1.6-0.2-2.2-0.6c-0.5-0.4-1-0.9-1.3-1.5c-0.3-0.6-0.5-1.4-0.6-2.2
		C247.3,74.5,247.3,73.7,247.3,72.8z"/>
	<path id="XMLID_19_" class="st3" d="M295.7,72.7c-0.8,0.7-1.8,1.5-2.9,2.3c-1.2,0.8-2.4,1.6-3.8,2.3c-1.4,0.7-2.7,1.3-4.2,1.7
		c-1.4,0.5-2.8,0.7-4,0.7c-1.1,0-2.1-0.2-2.9-0.5c-0.8-0.3-1.4-0.8-1.9-1.3s-0.8-1.3-1-2.1c-0.2-0.8-0.3-1.7-0.3-2.7
		c0-1.4,0.2-3,0.5-4.8c0.3-1.8,0.7-3.7,1.2-5.7c0.5-2,0.9-3.9,1.5-5.9c0.5-2,1-3.8,1.4-5.4c0.2-0.6,0.5-1.1,0.9-1.5
		c0.5-0.4,1-0.7,1.6-1c0.6-0.3,1.2-0.4,1.8-0.6c0.6-0.1,1.2-0.2,1.7-0.2c0.9,0,1.5,0.2,1.9,0.5s0.5,0.8,0.5,1.4
		c0,0.5-0.1,1.2-0.3,2.1c-0.2,0.9-0.5,1.9-0.8,3.1s-0.7,2.4-1.1,3.7c-0.4,1.3-0.7,2.7-1.1,4c-0.3,1.3-0.6,2.6-0.8,3.9
		c-0.2,1.3-0.3,2.4-0.3,3.4c0,1,0.1,1.8,0.3,2.4c0.2,0.6,0.7,0.9,1.4,0.9c0.8,0,1.7-0.3,2.6-0.8c1-0.5,1.9-1.2,2.9-2
		c1-0.8,2-1.6,2.9-2.4s1.8-1.5,2.5-2.1L295.7,72.7L295.7,72.7z M281,38.8c0-0.5,0.1-1.1,0.3-1.7c0.2-0.6,0.6-1.2,1.1-1.8
		c0.5-0.6,1.2-1,2-1.4c0.8-0.4,1.8-0.6,3.1-0.6c0.8,0,1.5,0.1,2.2,0.3c0.7,0.2,1.3,0.4,1.8,0.8c0.5,0.4,0.9,0.8,1.2,1.4
		s0.4,1.3,0.4,2.1c0,0.7-0.1,1.5-0.4,2.2c-0.2,0.7-0.6,1.3-1.2,1.9c-0.5,0.5-1.2,1-2,1.3c-0.8,0.3-1.8,0.5-2.9,0.5
		c-1.9,0-3.4-0.5-4.3-1.4C281.5,41.6,281,40.3,281,38.8z"/>
	<path id="XMLID_22_" class="st3" d="M290.1,73.5c0-0.5,0.1-0.9,0.3-1.2c0.2-0.3,0.4-0.6,0.7-0.9c0.3-0.3,0.6-0.6,1-0.9
		c0.4-0.3,0.8-0.7,1.2-1.1l10.2-13.8c-0.4-0.2-0.7-0.3-1-0.5c-0.3-0.2-0.5-0.3-0.8-0.4c-0.2-0.1-0.5-0.2-0.7-0.3
		c-0.2-0.1-0.5-0.1-0.8-0.1c-0.7,0-1.3,0-1.7,0c-0.5,0-0.9,0.1-1.2,0.2c-0.3,0.1-0.6,0.3-0.9,0.6c-0.3,0.3-0.5,0.6-0.8,1.1
		c-0.7,1.1-1.3,1.8-1.7,2.3c-0.5,0.5-0.9,0.7-1.3,0.7c-0.4,0-0.6-0.2-0.7-0.5s-0.2-0.7-0.2-1.3c0-0.2,0-0.5,0-0.7
		c0-0.3,0.1-0.5,0.1-0.8c0.3-1.9,0.8-3.5,1.4-4.6c0.6-1.2,1.3-2.1,2.1-2.7c0.8-0.6,1.5-1.1,2.4-1.3c0.8-0.2,1.6-0.3,2.3-0.3
		c0.5,0,1.1,0.1,1.6,0.4c0.5,0.3,1,0.5,1.6,0.8c0.5,0.3,1,0.6,1.6,0.8s1.1,0.4,1.7,0.4c0.4,0,0.8,0,1.2,0c0.4,0,0.7,0,1,0
		c0.9,0,1.6,0,2.1,0s0.9-0.1,1.2-0.1c0.3,0,0.5-0.1,0.6-0.1c0.1,0,0.2,0,0.3,0c0.8,0,1.3,0.3,1.7,0.8c0.3,0.5,0.5,1.3,0.5,2.2
		c0,0.6-0.1,1.2-0.2,1.9c0,0.2-0.3,0.4-0.7,0.7c-0.4,0.3-1.1,0.5-2,0.8c-0.3,0.5-0.7,1.2-1.3,2c-0.6,0.9-1.3,1.9-2.1,2.9
		c-0.8,1.1-1.6,2.2-2.5,3.3c-0.9,1.1-1.7,2.2-2.5,3.2s-1.5,1.9-2,2.6c-0.6,0.7-1,1.2-1.2,1.5l-0.2,0.7c0,0,0.2,0.1,0.6,0.2
		c0.4,0.2,0.8,0.3,1.3,0.5c0.5,0.2,1,0.4,1.6,0.5c0.6,0.2,1,0.2,1.5,0.2c0.9,0,1.8-0.1,2.5-0.4c0.8-0.3,1.5-0.6,2.1-1
		c0.6-0.4,1.3-0.9,1.8-1.3c0.6-0.5,1.1-0.9,1.6-1.3c0.5-0.4,1-0.8,1.5-1c0.5-0.3,1-0.4,1.6-0.4c0.4,0,0.8,0.1,1.1,0.3
		c0.3,0.2,0.6,0.4,0.9,0.8c0.2,0.3,0.4,0.7,0.5,1c0.1,0.4,0.2,0.8,0.2,1.1c0,0.6-0.2,1.3-0.7,2c-0.5,0.7-1.1,1.4-1.9,2
		s-1.8,1.3-2.8,1.9c-1.1,0.6-2.2,1.1-3.4,1.6c-1.2,0.5-2.4,0.8-3.6,1.1c-1.2,0.3-2.4,0.4-3.4,0.4c-0.1,0-0.3,0-0.7-0.1
		c-0.4-0.1-0.9-0.2-1.5-0.4c-0.6-0.2-1.3-0.5-2.1-0.8c-0.8-0.3-1.7-0.7-2.7-1.3c-0.8,0.3-1.6,0.4-2.2,0.4c-0.7,0-1.2-0.1-1.7-0.3
		c-0.5-0.2-0.9-0.5-1.2-0.9c-0.3-0.4-0.6-0.8-0.7-1.3C290.1,74.6,290.1,74.1,290.1,73.5z"/>
	<path id="XMLID_24_" class="st3" d="M314.9,72.7c0-1,0.1-2.1,0.2-3.4c0.1-1.3,0.3-2.6,0.4-4.1c0.2-1.4,0.4-2.9,0.7-4.4
		c0.3-1.5,0.5-2.9,0.8-4.2c0.3-1.3,0.6-2.6,0.9-3.7s0.6-2,0.9-2.8c0.2-0.5,0.4-0.9,0.5-1.2c0.2-0.3,0.4-0.5,0.6-0.7s0.5-0.3,0.9-0.3
		c0.3-0.1,0.8-0.1,1.3-0.1c0.6,0,1,0,1.3,0.1c0.3,0.1,0.6,0.2,0.7,0.4c0.2,0.2,0.2,0.5,0.3,0.9c0,0.4,0,0.9,0,1.6c0,0.8,0,1.8,0,2.9
		s0,2.3,0.1,3.4h0.4c0.4-0.9,0.9-1.9,1.5-2.9c0.5-1.1,1.2-2.1,1.9-3c0.7-0.9,1.5-1.7,2.5-2.4c0.9-0.6,2-1,3.2-1
		c0.4,0,0.8,0.1,1.2,0.2s0.7,0.3,1,0.6s0.5,0.6,0.7,1c0.2,0.4,0.3,0.8,0.3,1.3c0,0.4-0.1,0.9-0.2,1.6c-0.1,0.7-0.2,1.4-0.4,2.1
		c-0.1,0.7-0.3,1.4-0.4,2.1c-0.1,0.7-0.2,1.3-0.2,1.7c0,0.8,0.1,1.4,0.2,2c0.2,0.5,0.4,1,0.6,1.3c0.3,0.3,0.5,0.5,0.9,0.7
		c0.3,0.1,0.7,0.2,1,0.2c1,0,2-0.2,3.1-0.7c1.1-0.4,2-0.9,2.9-1.5c0,0,0,0,0,0c1.3-0.8,2.9,0.1,2.8,1.6l-0.2,3
		c0,0.6-0.3,1.1-0.8,1.4c-0.4,0.2-0.8,0.5-1.2,0.8c-0.7,0.5-1.5,0.9-2.3,1.3c-0.9,0.5-1.9,0.8-2.9,1.1c-0.6,0.2-1.2,0.3-1.8,0.3
		c-1.9,0.1-3.4-0.2-4.6-1c-1-0.7-1.8-1.5-2.4-2.6c-0.6-1.1-1-2.3-1.3-3.7c-0.3-1.3-0.5-2.7-0.7-4.1h-0.5l-5.9,16.4
		c-0.3,0.9-0.6,1.6-0.9,2.1c-0.3,0.6-0.6,1-0.8,1.4c-0.3,0.4-0.6,0.6-0.9,0.7s-0.7,0.2-1.1,0.2c-0.9,0-1.6-0.2-2.2-0.6
		c-0.5-0.4-1-0.9-1.3-1.5c-0.3-0.6-0.5-1.4-0.6-2.2C315,74.4,314.9,73.6,314.9,72.7z"/>
</g>
</svg>
